<svg xmlns="http://www.w3.org/2000/svg" viewBox="0 0 360 220">
  <defs>
    <linearGradient id="race" x1="0" y1="0" x2="360" y2="220" gradientUnits="userSpaceOnUse">
      <stop stop-color="#17235c"/><stop offset=".55" stop-color="#493ac8"/><stop offset="1" stop-color="#ff5a3d"/>
    </linearGradient>
  </defs>
  <rect width="360" height="220" rx="24" fill="url(#race)"/>
  <path d="M58 151c54-42 111-64 174-66" stroke="#fff" stroke-width="8" stroke-dasharray="14 16" opacity=".45" fill="none"/>
  <g transform="translate(137 44) rotate(-18)">
    <path d="M64 0c30 25 42 62 33 109L44 129C9 96 2 61 23 23Z" fill="#fff" stroke="#c8d7f4" stroke-width="7"/>
    <circle cx="54" cy="54" r="20" fill="#34a7ff" stroke="#24304f" stroke-width="6"/>
    <path d="M35 125 16 157l42-19M87 105l35 14-38 22" fill="#ff5a3d" stroke="#a9231a" stroke-width="6"/>
    <path d="M35 144c-14 20-14 33 0 49 5-20 15-32 31-38Z" fill="#ffd84d"/>
  </g>
  <g fill="#ffd84d">
    <path d="M62 45 70 61 88 63 75 75 78 93 62 84 46 93 49 75 36 63 54 61Z"/>
    <path d="M290 42 297 56 313 58 301 69 304 85 290 77 276 85 279 69 267 58 283 56Z"/>
  </g>
</svg>
