<svg xmlns="http://www.w3.org/2000/svg" viewBox="0 0 360 360">
  <defs>
    <filter id="shadow" x="-20%" y="-20%" width="140%" height="150%">
      <feDropShadow dx="0" dy="14" stdDeviation="10" flood-color="#24304f" flood-opacity=".18"/>
    </filter>
    <linearGradient id="red" x1="72" y1="80" x2="260" y2="278" gradientUnits="userSpaceOnUse">
      <stop stop-color="#ff7545"/><stop offset=".64" stop-color="#f34324"/><stop offset="1" stop-color="#c82d20"/>
    </linearGradient>
    <linearGradient id="leaf" x1="110" y1="26" x2="245" y2="82" gradientUnits="userSpaceOnUse">
      <stop stop-color="#24bd70"/><stop offset="1" stop-color="#08733f"/>
    </linearGradient>
  </defs>
  <g opacity=".9">
    <rect x="31" y="61" width="14" height="14" rx="3" fill="#ffd84d" transform="rotate(18 38 68)"/>
    <rect x="304" y="77" width="14" height="14" rx="3" fill="#39d98a" transform="rotate(-22 311 84)"/>
    <rect x="70" y="33" width="13" height="13" rx="3" fill="#7c5cff"/>
    <rect x="280" y="30" width="13" height="13" rx="3" fill="#ff5a3d"/>
    <rect x="31" y="224" width="15" height="15" rx="3" fill="#34a7ff"/>
    <rect x="315" y="214" width="15" height="15" rx="3" fill="#ffd84d"/>
  </g>
  <ellipse cx="180" cy="322" rx="98" ry="16" fill="#24304f" opacity=".13"/>
  <g filter="url(#shadow)">
    <path d="M96 81c-28 24-42 63-37 107 8 72 62 115 121 115 67 0 124-47 124-121 0-61-37-109-93-119-42-7-84-2-115 18Z" fill="url(#red)" stroke="#a9231a" stroke-width="6"/>
    <path d="M87 121h187M75 171h218M90 224h174M130 70v222M180 60v238M231 76v199" stroke="#a9231a" stroke-width="4" opacity=".42"/>
    <g fill="#ff6b35" stroke="#a9231a" stroke-width="4">
      <rect x="118" y="61" width="34" height="23" rx="10"/>
      <rect x="164" y="55" width="34" height="23" rx="10"/>
      <rect x="210" y="63" width="34" height="23" rx="10"/>
    </g>
    <g fill="url(#leaf)" stroke="#075f35" stroke-width="5">
      <rect x="92" y="44" width="74" height="36" rx="8" transform="rotate(-18 129 62)"/>
      <rect x="143" y="32" width="76" height="36" rx="8"/>
      <rect x="197" y="44" width="74" height="36" rx="8" transform="rotate(18 234 62)"/>
      <rect x="171" y="10" width="26" height="58" rx="10"/>
    </g>
    <circle cx="139" cy="147" r="39" fill="#fff8e8" stroke="#e8ddc8" stroke-width="5"/>
    <circle cx="221" cy="147" r="39" fill="#fff8e8" stroke="#e8ddc8" stroke-width="5"/>
    <circle cx="147" cy="154" r="22" fill="#11131a"/>
    <circle cx="229" cy="154" r="22" fill="#11131a"/>
    <circle cx="138" cy="144" r="8" fill="#fff"/>
    <circle cx="220" cy="144" r="8" fill="#fff"/>
    <g stroke="#11131a" stroke-width="10" stroke-linecap="round" fill="none">
      <path d="M77 175C45 132 46 91 76 65"/>
      <path d="M283 175c32-43 31-84 1-110"/>
      <path d="M145 288v34"/>
      <path d="M215 288v34"/>
    </g>
    <g fill="#f34324" stroke="#a9231a" stroke-width="4">
      <rect x="62" y="54" width="38" height="29" rx="7" transform="rotate(-28 81 68)"/>
      <rect x="260" y="54" width="38" height="29" rx="7" transform="rotate(28 279 68)"/>
      <rect x="115" y="319" width="58" height="28" rx="5"/>
      <rect x="188" y="319" width="58" height="28" rx="5"/>
    </g>
  </g>
</svg>
