<svg xmlns="http://www.w3.org/2000/svg" viewBox="0 0 360 220">
  <defs>
    <linearGradient id="sea" x1="0" y1="0" x2="360" y2="220" gradientUnits="userSpaceOnUse">
      <stop stop-color="#34a7ff"/><stop offset=".58" stop-color="#2bc7c8"/><stop offset="1" stop-color="#39d98a"/>
    </linearGradient>
  </defs>
  <rect width="360" height="220" rx="24" fill="url(#sea)"/>
  <g fill="#fff" opacity=".45">
    <circle cx="58" cy="42" r="13"/><circle cx="100" cy="78" r="8"/><circle cx="291" cy="54" r="10"/><circle cx="306" cy="134" r="15"/>
  </g>
  <g transform="translate(110 54)">
    <circle cx="58" cy="58" r="48" fill="#ffd84d" stroke="#d3a300" stroke-width="6"/>
    <circle cx="41" cy="52" r="9" fill="#24304f"/><circle cx="75" cy="52" r="9" fill="#24304f"/>
    <rect x="23" y="23" width="70" height="30" rx="15" fill="#1b2850" opacity=".85"/>
    <circle cx="42" cy="38" r="11" fill="#b7f3ff"/><circle cx="74" cy="38" r="11" fill="#b7f3ff"/>
    <path d="M39 82c13 11 28 11 40 0" stroke="#24304f" stroke-width="6" stroke-linecap="round" fill="none"/>
    <path d="M10 80-20 105M105 80l30 25" stroke="#ffdf5e" stroke-width="12" stroke-linecap="round"/>
  </g>
  <path d="M37 169c54-24 108-24 162 0s95 24 130 0" stroke="#fff" stroke-width="10" stroke-linecap="round" opacity=".55" fill="none"/>
</svg>
