<svg xmlns="http://www.w3.org/2000/svg" viewBox="0 0 240 210">
  <defs>
    <filter id="shadow" x="-20%" y="-20%" width="140%" height="150%">
      <feDropShadow dx="0" dy="10" stdDeviation="7" flood-color="#24304f" flood-opacity=".18"/>
    </filter>
    <linearGradient id="green" x1="32" y1="58" x2="180" y2="170" gradientUnits="userSpaceOnUse">
      <stop stop-color="#b9c85b"/>
      <stop offset=".6" stop-color="#7f9340"/>
      <stop offset="1" stop-color="#59682e"/>
    </linearGradient>
  </defs>
  <ellipse cx="120" cy="188" rx="82" ry="14" fill="#24304f" opacity=".13"/>
  <g filter="url(#shadow)">
    <path d="M49 91c7-30 34-48 73-43 43 6 74 35 74 75 0 38-31 63-76 63-51 0-83-39-71-95Z" fill="url(#green)" stroke="#4c5a28" stroke-width="6"/>
    <path d="M100 55c10 38 9 84-3 124M141 61c11 37 11 76 2 112" stroke="#4c5a28" stroke-width="4" opacity=".45"/>
    <path d="M48 118h144M62 154h112" stroke="#4c5a28" stroke-width="4" opacity=".45"/>
    <g stroke="#11131a" stroke-width="6" stroke-linecap="round">
      <path d="M74 55 65 21"/>
      <path d="M123 51 128 17"/>
    </g>
    <circle cx="63" cy="18" r="9" fill="#11131a"/>
    <circle cx="129" cy="15" r="9" fill="#11131a"/>
    <circle cx="77" cy="77" r="25" fill="#fff8e8" stroke="#e8ddc8" stroke-width="5"/>
    <circle cx="132" cy="75" r="25" fill="#fff8e8" stroke="#e8ddc8" stroke-width="5"/>
    <circle cx="84" cy="82" r="12" fill="#11131a"/>
    <circle cx="139" cy="80" r="12" fill="#11131a"/>
    <circle cx="78" cy="75" r="5" fill="#fff"/>
    <circle cx="133" cy="73" r="5" fill="#fff"/>
    <path d="M62 111c19 22 76 24 105 0v26c-26 28-84 25-105-1Z" fill="#171922"/>
    <g fill="#fff">
      <path d="M78 110h18l-9 24Z"/>
      <path d="M112 114h18l-9 24Z"/>
      <path d="M147 110h18l-9 24Z"/>
    </g>
    <g fill="#6f8239" stroke="#4c5a28" stroke-width="4">
      <path d="M185 115 225 126 186 138Z"/>
      <path d="M178 153 213 168 173 174Z"/>
      <path d="M57 154 24 170 62 174Z"/>
    </g>
  </g>
</svg>
