<svg xmlns="http://www.w3.org/2000/svg" viewBox="0 0 360 360">
  <defs>
    <filter id="shadow" x="-20%" y="-20%" width="140%" height="150%">
      <feDropShadow dx="0" dy="14" stdDeviation="10" flood-color="#24304f" flood-opacity=".18"/>
    </filter>
    <linearGradient id="red" x1="75" y1="78" x2="250" y2="270" gradientUnits="userSpaceOnUse">
      <stop stop-color="#ff6b35"/>
      <stop offset=".62" stop-color="#f34324"/>
      <stop offset="1" stop-color="#c82d20"/>
    </linearGradient>
    <linearGradient id="leaf" x1="115" y1="25" x2="235" y2="84" gradientUnits="userSpaceOnUse">
      <stop stop-color="#23b86a"/>
      <stop offset="1" stop-color="#08733f"/>
    </linearGradient>
  </defs>
  <ellipse cx="180" cy="322" rx="98" ry="16" fill="#24304f" opacity=".13"/>
  <g filter="url(#shadow)">
    <path d="M97 80c-28 24-43 64-38 107 8 72 63 116 121 116 67 0 124-47 124-121 0-61-37-109-93-119-42-7-84-2-114 17Z" fill="url(#red)" stroke="#a9231a" stroke-width="6"/>
    <path d="M87 121h187M75 171h218M90 224h174M130 70v222M180 60v238M231 76v199" stroke="#a9231a" stroke-width="4" opacity=".45"/>
    <path d="M224 80c31 14 50 40 56 75" stroke="#ff9a76" stroke-width="22" stroke-linecap="round" opacity=".38"/>
    <g fill="#ff6b35" stroke="#a9231a" stroke-width="4">
      <rect x="118" y="61" width="34" height="23" rx="10"/>
      <rect x="164" y="55" width="34" height="23" rx="10"/>
      <rect x="210" y="63" width="34" height="23" rx="10"/>
    </g>
    <g fill="url(#leaf)" stroke="#075f35" stroke-width="5">
      <rect x="92" y="44" width="74" height="36" rx="8" transform="rotate(-18 129 62)"/>
      <rect x="143" y="32" width="76" height="36" rx="8"/>
      <rect x="197" y="44" width="74" height="36" rx="8" transform="rotate(18 234 62)"/>
      <rect x="171" y="10" width="26" height="58" rx="10"/>
    </g>
    <g>
      <circle cx="139" cy="147" r="39" fill="#fff8e8" stroke="#e8ddc8" stroke-width="5"/>
      <circle cx="221" cy="147" r="39" fill="#fff8e8" stroke="#e8ddc8" stroke-width="5"/>
      <circle cx="147" cy="154" r="22" fill="#11131a"/>
      <circle cx="229" cy="154" r="22" fill="#11131a"/>
      <circle cx="138" cy="144" r="8" fill="#fff"/>
      <circle cx="220" cy="144" r="8" fill="#fff"/>
    </g>
    <g stroke="#11131a" stroke-width="10" stroke-linecap="round" fill="none">
      <path d="M73 178C44 148 41 119 66 103"/>
      <path d="M288 175c22 15 31 37 22 64"/>
      <path d="M145 288v34"/>
      <path d="M215 288v34"/>
    </g>
    <g fill="#f34324" stroke="#a9231a" stroke-width="4">
      <rect x="45" y="94" width="36" height="28" rx="7" transform="rotate(-18 63 108)"/>
      <rect x="295" y="235" width="40" height="29" rx="7" transform="rotate(16 315 249)"/>
      <rect x="115" y="319" width="58" height="28" rx="5"/>
      <rect x="188" y="319" width="58" height="28" rx="5"/>
    </g>
  </g>
</svg>
