<svg xmlns="http://www.w3.org/2000/svg" viewBox="0 0 360 360">
  <defs>
    <filter id="shadow" x="-20%" y="-20%" width="140%" height="150%">
      <feDropShadow dx="0" dy="14" stdDeviation="10" flood-color="#24304f" flood-opacity=".18"/>
    </filter>
    <linearGradient id="red" x1="72" y1="80" x2="260" y2="278" gradientUnits="userSpaceOnUse">
      <stop stop-color="#ff7545"/><stop offset=".64" stop-color="#f34324"/><stop offset="1" stop-color="#c82d20"/>
    </linearGradient>
    <linearGradient id="leaf" x1="110" y1="26" x2="245" y2="82" gradientUnits="userSpaceOnUse">
      <stop stop-color="#24bd70"/><stop offset="1" stop-color="#08733f"/>
    </linearGradient>
  </defs>
  <ellipse cx="180" cy="322" rx="98" ry="16" fill="#24304f" opacity=".13"/>
  <g filter="url(#shadow)">
    <path d="M96 81c-28 24-42 63-37 107 8 72 62 115 121 115 67 0 124-47 124-121 0-61-37-109-93-119-42-7-84-2-115 18Z" fill="url(#red)" stroke="#a9231a" stroke-width="6"/>
    <path d="M87 121h187M75 171h218M90 224h174M130 70v222M180 60v238M231 76v199" stroke="#a9231a" stroke-width="4" opacity=".42"/>
    <path d="M223 80c31 14 50 40 56 75" stroke="#ff9a76" stroke-width="22" stroke-linecap="round" opacity=".34"/>
    <g fill="#ff6b35" stroke="#a9231a" stroke-width="4">
      <rect x="118" y="61" width="34" height="23" rx="10"/>
      <rect x="164" y="55" width="34" height="23" rx="10"/>
      <rect x="210" y="63" width="34" height="23" rx="10"/>
    </g>
    <g fill="url(#leaf)" stroke="#075f35" stroke-width="5">
      <rect x="92" y="44" width="74" height="36" rx="8" transform="rotate(-18 129 62)"/>
      <rect x="143" y="32" width="76" height="36" rx="8"/>
      <rect x="197" y="44" width="74" height="36" rx="8" transform="rotate(18 234 62)"/>
      <rect x="171" y="10" width="26" height="58" rx="10"/>
    </g>
    <path d="M83 153c1-70 37-105 97-105s96 35 97 105" fill="none" stroke="#24304f" stroke-width="14" stroke-linecap="round"/>
    <rect x="61" y="133" width="35" height="69" rx="12" fill="#34a7ff" stroke="#24304f" stroke-width="6"/>
    <rect x="264" y="133" width="35" height="69" rx="12" fill="#34a7ff" stroke="#24304f" stroke-width="6"/>
    <circle cx="139" cy="147" r="39" fill="#fff8e8" stroke="#e8ddc8" stroke-width="5"/>
    <circle cx="221" cy="147" r="39" fill="#fff8e8" stroke="#e8ddc8" stroke-width="5"/>
    <circle cx="147" cy="154" r="22" fill="#11131a"/>
    <circle cx="229" cy="154" r="22" fill="#11131a"/>
    <circle cx="138" cy="144" r="8" fill="#fff"/>
    <circle cx="220" cy="144" r="8" fill="#fff"/>
    <g stroke="#11131a" stroke-width="10" stroke-linecap="round" fill="none">
      <path d="M72 181c-26 14-39 37-34 69"/>
      <path d="M288 181c26 14 39 37 34 69"/>
      <path d="M145 288v34"/>
      <path d="M215 288v34"/>
    </g>
    <g fill="#f34324" stroke="#a9231a" stroke-width="4">
      <rect x="27" y="249" width="40" height="29" rx="7" transform="rotate(-14 47 263)"/>
      <rect x="293" y="249" width="40" height="29" rx="7" transform="rotate(14 313 263)"/>
      <rect x="115" y="319" width="58" height="28" rx="5"/>
      <rect x="188" y="319" width="58" height="28" rx="5"/>
    </g>
  </g>
</svg>
